<svg width="77" height="78" viewBox="0 0 77 78" fill="none" xmlns="http://www.w3.org/2000/svg">
<path d="M28.875 32.1329C28.875 29.4808 26.7199 27.33 24.0625 27.33H21.6562C16.3399 27.33 12.0312 31.6301 12.0312 36.9358V44.1401C12.0312 49.4458 16.3399 53.7459 21.6562 53.7459H24.0625C26.7199 53.7459 28.875 51.5951 28.875 48.943V32.1329ZM55.3438 53.7459C60.6601 53.7459 64.9688 49.4458 64.9688 44.1401V36.9358C64.9688 31.6301 60.6601 27.33 55.3438 27.33H52.9375C50.2801 27.33 48.125 29.4808 48.125 32.1329V48.943C48.125 51.5951 50.2801 53.7459 52.9375 53.7459H55.3438ZM38.5 0.914062C17.0212 0.914062 0.688789 18.7493 0 39.3372V41.7387C0 43.0655 1.0768 44.1401 2.40625 44.1401H4.8125C6.14195 44.1401 7.21875 43.0655 7.21875 41.7387V39.3372C7.21875 22.1233 21.2517 8.1184 38.5 8.1184C55.7483 8.1184 69.7812 22.1233 69.7812 39.3372H69.7632C69.7752 39.7019 69.7812 64.2102 69.7812 64.2102C69.7812 67.7148 66.9344 70.556 63.4227 70.556H48.125C48.125 66.5771 44.8931 63.3517 40.9062 63.3517H36.0938C32.1069 63.3517 28.875 66.5771 28.875 70.556C28.875 74.5349 32.1069 77.7604 36.0938 77.7604H63.4227C70.9212 77.7604 77 71.6937 77 64.2102V39.3372C76.3112 18.7493 59.9788 0.914062 38.5 0.914062Z" fill="#FF472E"/>
</svg>
