<svg width="20" height="20" viewBox="0 0 20 20" fill="none" xmlns="http://www.w3.org/2000/svg">
<g id="instagram">
<path id="Vector" d="M5.83335 2.6665H14.1667C15.9156 2.6665 17.3334 4.08427 17.3334 5.83317V14.1665C17.3334 15.9154 15.9156 17.3332 14.1667 17.3332H5.83335C4.08445 17.3332 2.66669 15.9154 2.66669 14.1665V5.83317C2.66669 4.08427 4.08445 2.6665 5.83335 2.6665Z" stroke="white" stroke-width="2" stroke-linecap="round" stroke-linejoin="round"/>
<path id="Vector_2" d="M12.3441 9.62145C12.4161 10.1069 12.3332 10.6027 12.1072 11.0384C11.8811 11.474 11.5235 11.8273 11.0851 12.0479C10.6467 12.2686 10.1499 12.3454 9.66534 12.2674C9.18079 12.1894 8.73316 11.9607 8.38612 11.6136C8.03908 11.2666 7.81031 10.819 7.73234 10.3344C7.65436 9.84985 7.73117 9.35305 7.95182 8.91466C8.17247 8.47628 8.52574 8.11863 8.96137 7.89259C9.397 7.66655 9.89282 7.58362 10.3783 7.65561C10.8735 7.72905 11.332 7.9598 11.686 8.31379C12.0399 8.66778 12.2707 9.12624 12.3441 9.62145Z" stroke="white" stroke-width="2" stroke-linecap="round" stroke-linejoin="round"/>
<path id="Vector_3" d="M14.5833 5.4165H14.5921" stroke="white" stroke-width="2" stroke-linecap="round" stroke-linejoin="round"/>
</g>
</svg>
