<svg width="16" height="16" viewBox="0 0 16 16" fill="none" xmlns="http://www.w3.org/2000/svg">
<rect width="16" height="16" fill="#1E1E1E"/>
<g id="5" clip-path="url(#clip0_0_1)">
<rect width="1920" height="6977" transform="translate(-279 -6832)" fill="white"/>
<g id="Footer">
<rect id="Replace this" x="-279" y="-341" width="1920" height="486" fill="#562479"/>
<g id="social icons">
<g id="linkedin">
<rect width="16" height="16" fill="white"/>
<path id="Vector" d="M10.6667 5.3335C11.7276 5.3335 12.745 5.75492 13.4951 6.50507C14.2453 7.25521 14.6667 8.27263 14.6667 9.3335V14.0002H12V9.3335C12 8.97987 11.8595 8.64074 11.6095 8.39069C11.3594 8.14064 11.0203 8.00016 10.6667 8.00016C10.3131 8.00016 9.97393 8.14064 9.72388 8.39069C9.47383 8.64074 9.33335 8.97987 9.33335 9.3335V14.0002H6.66669V9.3335C6.66669 8.27263 7.08811 7.25521 7.83826 6.50507C8.58841 5.75492 9.60582 5.3335 10.6667 5.3335Z" fill="#562479"/>
<path id="Vector_2" d="M3.99998 6H1.33331V14H3.99998V6Z" fill="#562479"/>
<path id="Vector_3" d="M2.66665 4.00016C3.40303 4.00016 3.99998 3.40321 3.99998 2.66683C3.99998 1.93045 3.40303 1.3335 2.66665 1.3335C1.93027 1.3335 1.33331 1.93045 1.33331 2.66683C1.33331 3.40321 1.93027 4.00016 2.66665 4.00016Z" fill="#562479"/>
</g>
</g>
</g>
</g>
<defs>
<clipPath id="clip0_0_1">
<rect width="1920" height="6977" fill="white" transform="translate(-279 -6832)"/>
</clipPath>
</defs>
</svg>
