<svg width="50" height="85" viewBox="0 0 50 85" fill="none" xmlns="http://www.w3.org/2000/svg">
<path d="M37.2017 84.0366C10.7404 76.7751 -5.05418 49.4155 1.86499 22.9537C2.169 21.791 3.23375 21.0156 4.41624 21.0639L15.7949 21.5289C16.3949 21.5533 16.9696 21.7888 17.4186 22.194C17.8676 22.5992 18.1623 23.1484 18.2513 23.7457L20.1776 36.6775C20.2599 37.2299 20.1614 37.7922 19.8971 38.2795C19.6328 38.7669 19.217 39.153 18.7123 39.3795L11.1183 42.7881C12.7931 51.9202 17.6778 60.2339 24.6169 66.1218L31.3718 61.2624C31.8207 60.9395 32.3637 60.7731 32.9187 60.7883C33.4738 60.8036 34.011 60.9996 34.4492 61.347L44.7077 69.4779C45.1815 69.8534 45.5107 70.3828 45.6379 70.9735C45.765 71.5641 45.6819 72.1786 45.4032 72.7094L40.1174 82.7764C39.8485 83.2882 39.4139 83.6915 38.8844 83.9204C38.3548 84.1493 37.7617 84.1902 37.2017 84.0366ZM25.5154 19.4546C28.5438 21.1839 30.4208 24.4284 30.4072 27.9106C30.4027 29.0731 29.3206 29.916 28.1951 29.6325L26.9964 29.3308C26.2118 29.1333 25.6567 28.4351 25.6222 27.6252C25.5885 26.8449 25.3657 26.0825 24.9733 25.4042C24.5809 24.7259 24.0307 24.1522 23.3705 23.7329C22.6848 23.2982 22.3566 22.4693 22.5776 21.6924L22.9151 20.5056C23.2319 19.391 24.5043 18.8772 25.5154 19.4546ZM30.4578 0.803205C43.5731 5.65584 51.4082 19.2137 49.0632 32.9644C48.8887 33.9882 47.8846 34.6394 46.8771 34.3858L45.7139 34.0929C44.799 33.8625 44.2072 32.963 44.3627 32.0328C46.273 20.6136 39.7712 9.38685 28.9159 5.33165C28.031 5.001 27.5462 4.03978 27.8039 3.13379L28.1313 1.98202C28.415 0.984432 29.4821 0.442183 30.4578 0.803205ZM27.9274 10.0499C36.0449 13.4007 40.927 21.8227 39.7742 30.5281C39.634 31.5865 38.612 32.2811 37.5768 32.0202L36.4094 31.7259C35.5265 31.5035 34.9326 30.654 35.0463 29.7504C35.8584 23.2921 32.2482 17.0521 26.2383 14.525C25.3974 14.1715 24.9573 13.2336 25.2056 12.3591L25.534 11.203C25.8252 10.1779 26.9389 9.64184 27.9274 10.0499Z" fill="#E72B6A"/>
</svg>
