<svg width="22" height="22" viewBox="0 0 22 22" fill="none" xmlns="http://www.w3.org/2000/svg">
<g id="youtube">
<path id="Vector" d="M11 4.6665L11 3.6665L11 4.6665H11.0002L11.0009 4.6665L11.0041 4.66651L11.0172 4.66652L11.0692 4.6666L11.2698 4.66725C11.4437 4.66799 11.6944 4.66948 12.0003 4.67247C12.6124 4.67845 13.4439 4.6904 14.3233 4.71426C15.2041 4.73816 16.1256 4.77382 16.92 4.82672C17.724 4.88027 18.3237 4.94739 18.6282 5.01867C18.8836 5.09412 19.1154 5.23422 19.301 5.42555C19.4838 5.61405 19.6156 5.84584 19.6841 6.09901C19.9595 7.63864 20.0932 9.2003 20.0833 10.7644L20.0833 10.7644L20.0833 10.7743C20.0889 12.3148 19.9553 13.8526 19.6841 15.369C19.6156 15.6222 19.4838 15.854 19.301 16.0425C19.1129 16.2363 18.8774 16.3776 18.618 16.4523C18.3249 16.5293 17.7277 16.6036 16.9137 16.6629C16.1211 16.7207 15.201 16.7597 14.3207 16.7859C13.4421 16.812 12.6111 16.8251 11.9993 16.8316C11.6937 16.8349 11.4432 16.8365 11.2694 16.8374L11.069 16.8381L11.0171 16.8382L11.004 16.8382L11.0009 16.8382H11.0002H11H10.9998H10.9991L10.9959 16.8382L10.9829 16.8382L10.931 16.8381L10.7306 16.8374C10.5568 16.8365 10.3063 16.8349 10.0006 16.8316C9.38886 16.8251 8.55793 16.812 7.67928 16.7859C6.79903 16.7597 5.87891 16.7207 5.08633 16.6629C4.26837 16.6033 3.66932 16.5286 3.37778 16.4512C3.12202 16.3807 2.88865 16.2457 2.70006 16.059C2.52119 15.882 2.38833 15.6642 2.3127 15.4246C2.03944 13.8907 1.90686 12.335 1.91664 10.7769H1.9167L1.91665 10.7657C1.90898 9.21343 2.04261 7.66368 2.31587 6.13566C2.3844 5.88249 2.51618 5.65071 2.69902 5.46222C2.88708 5.26834 3.12255 5.12707 3.38203 5.05236C3.67512 4.97533 4.27233 4.90112 5.08633 4.84175C5.87891 4.78394 6.79903 4.74493 7.67928 4.71877C8.55793 4.69266 9.38886 4.67958 10.0006 4.67304C10.3063 4.66977 10.5568 4.66813 10.7306 4.66732L10.931 4.6666L10.9829 4.66652L10.9959 4.66651L10.9991 4.6665L10.9998 4.6665H11Z" stroke="white" stroke-width="2" stroke-linecap="round" stroke-linejoin="round"/>
<path id="Vector_2" d="M9.9375 9.49253L12.1855 10.7709L9.9375 12.0493V9.49253Z" stroke="white" stroke-width="2" stroke-linecap="round" stroke-linejoin="round"/>
</g>
</svg>
