<svg version="1.2" xmlns="http://www.w3.org/2000/svg" viewBox="0 0 2000 1500" width="200" height="150">
	<title>Beyond Just Service Logo-ai</title>
	<defs>
		<linearGradient id="g1" x2="1" gradientUnits="userSpaceOnUse" gradientTransform="matrix(0,2503.07,-2169.315,0,382.068,622.069)">
			<stop offset="0" stop-color="#503c80"/>
			<stop offset="1" stop-color="#7c4983"/>
		</linearGradient>
		<linearGradient id="g2" x2="1" gradientUnits="userSpaceOnUse" gradientTransform="matrix(0,2587.198,-1986.848,0,697.445,260.088)">
			<stop offset="0" stop-color="#503c80"/>
			<stop offset="1" stop-color="#7c4983"/>
		</linearGradient>
		<linearGradient id="g3" x2="1" gradientUnits="userSpaceOnUse" gradientTransform="matrix(0,2204.317,-2248.281,0,947.306,61.985)">
			<stop offset="0" stop-color="#503c80"/>
			<stop offset="1" stop-color="#7c4983"/>
		</linearGradient>
		<linearGradient id="g4" x2="1" gradientUnits="userSpaceOnUse" gradientTransform="matrix(0,2187.11,-2235.628,0,1262.081,-215.354)">
			<stop offset="0" stop-color="#503c80"/>
			<stop offset="1" stop-color="#7c4983"/>
		</linearGradient>
		<linearGradient id="g5" x2="1" gradientUnits="userSpaceOnUse" gradientTransform="matrix(0,2206.425,-2025.374,0,1618.746,-564.885)">
			<stop offset="0" stop-color="#503c80"/>
			<stop offset="1" stop-color="#7c4983"/>
		</linearGradient>
		<linearGradient id="g6" x2="1" gradientUnits="userSpaceOnUse" gradientTransform="matrix(0,2267.773,-2125.299,0,1955.694,-944.903)">
			<stop offset="0" stop-color="#503c80"/>
			<stop offset="1" stop-color="#7c4983"/>
		</linearGradient>
		<linearGradient id="g7" x2="1" gradientUnits="userSpaceOnUse" gradientTransform="matrix(0,2754.985,-2065.35,0,261.056,1021.952)">
			<stop offset="0" stop-color="#503c80"/>
			<stop offset="1" stop-color="#7c4983"/>
		</linearGradient>
		<linearGradient id="g8" x2="1" gradientUnits="userSpaceOnUse" gradientTransform="matrix(0,2338.604,-2109.125,0,420.231,883.733)">
			<stop offset="0" stop-color="#503c80"/>
			<stop offset="1" stop-color="#7c4983"/>
		</linearGradient>
		<linearGradient id="g9" x2="1" gradientUnits="userSpaceOnUse" gradientTransform="matrix(0,2730.083,-2157.472,0,617.513,590.799)">
			<stop offset="0" stop-color="#503c80"/>
			<stop offset="1" stop-color="#7c4983"/>
		</linearGradient>
		<linearGradient id="g10" x2="1" gradientUnits="userSpaceOnUse" gradientTransform="matrix(0,2498.463,-2197.383,0,768.591,459.31)">
			<stop offset="0" stop-color="#503c80"/>
			<stop offset="1" stop-color="#7c4983"/>
		</linearGradient>
		<linearGradient id="g11" x2="1" gradientUnits="userSpaceOnUse" gradientTransform="matrix(0,2730.147,-2157.468,0,1011.987,111.836)">
			<stop offset="0" stop-color="#503c80"/>
			<stop offset="1" stop-color="#7c4983"/>
		</linearGradient>
		<linearGradient id="g12" x2="1" gradientUnits="userSpaceOnUse" gradientTransform="matrix(0,2587.239,-1986.845,0,1179.459,-18.903)">
			<stop offset="0" stop-color="#503c80"/>
			<stop offset="1" stop-color="#7c4983"/>
		</linearGradient>
		<linearGradient id="g13" x2="1" gradientUnits="userSpaceOnUse" gradientTransform="matrix(0,2416.259,-2097.035,0,1340.412,-112.382)">
			<stop offset="0" stop-color="#503c80"/>
			<stop offset="1" stop-color="#7c4983"/>
		</linearGradient>
		<linearGradient id="g14" x2="1" gradientUnits="userSpaceOnUse" gradientTransform="matrix(0,2155.799,-2248.119,0,1498.305,-135.691)">
			<stop offset="0" stop-color="#503c80"/>
			<stop offset="1" stop-color="#7c4983"/>
		</linearGradient>
		<linearGradient id="g15" x2="1" gradientUnits="userSpaceOnUse" gradientTransform="matrix(0,185.58,-47.585,0,1907.894,1259.156)">
			<stop offset="0" stop-color="#503c80"/>
			<stop offset="1" stop-color="#7c4983"/>
		</linearGradient>
		<linearGradient id="g16" x2="1" gradientUnits="userSpaceOnUse" gradientTransform="matrix(0,2284.212,-2185.79,0,1782.464,-493.459)">
			<stop offset="0" stop-color="#503c80"/>
			<stop offset="1" stop-color="#7c4983"/>
		</linearGradient>
		<linearGradient id="g17" x2="1" gradientUnits="userSpaceOnUse" gradientTransform="matrix(0,2587.239,-1986.845,0,1984.824,-945.551)">
			<stop offset="0" stop-color="#503c80"/>
			<stop offset="1" stop-color="#7c4983"/>
		</linearGradient>
	</defs>
	<style>
		.s0 { fill: url(#g1) } 
		.s1 { fill: url(#g2) } 
		.s2 { fill: url(#g3) } 
		.s3 { fill: url(#g4) } 
		.s4 { fill: url(#g5) } 
		.s5 { fill: url(#g6) } 
		.s6 { fill: url(#g7) } 
		.s7 { fill: url(#g8) } 
		.s8 { fill: url(#g9) } 
		.s9 { fill: url(#g10) } 
		.s10 { fill: url(#g11) } 
		.s11 { fill: url(#g12) } 
		.s12 { fill: url(#g13) } 
		.s13 { fill: url(#g14) } 
		.s14 { fill: url(#g15) } 
		.s15 { fill: url(#g16) } 
		.s16 { fill: url(#g17) } 
		.s17 { fill: #fdc10c } 
	</style>
	<g id="Layer 1">
		<g id="&lt;Group&gt;">
			<path id="&lt;Compound Path&gt;" fill-rule="evenodd" class="s0" d="m73.7 1177.9q-4.1 0-6.9-2.9-2.8-2.8-2.8-6.8v-295.5q0-4 2.8-6.8 2.8-2.9 6.9-2.9h146.9q25.4 0 44.6 6.5 19.2 6.5 31.9 18.2 12.7 11.7 19.2 27.6 6.4 16 6.4 34.5 0 21.8-8.4 36.9-8.5 15.2-23.1 25.3-2 1.6-2 3.8 0 2.2 2.5 3.4 20.9 9.7 33 27.1 12.2 17.3 12.2 42.8 0 19.3-7.1 35.7-7.1 16.3-20.4 28.2-13.3 12-32.3 18.4-19 6.5-42.8 6.5zm167.5-216.4q0-11.3-6.2-18.1-6.3-6.9-19.2-6.9h-63q-3.2 0-5.6 2.4-2.4 2.4-2.4 5.7v33.9q0 3.2 2.4 5.6 2.4 2.4 5.6 2.4h58.6q16.5 0 23.2-6.8 6.6-6.9 6.6-18.2zm14.2 115.1q0-12.1-6.7-19.6-6.6-7.5-23.2-7.5h-72.7q-3.2 0-5.6 2.4-2.4 2.5-2.4 5.7v39.1q0 3.3 2.4 5.7 2.4 2.4 5.6 2.4h72.7q16.6 0 23.2-7.9 6.7-7.8 6.7-20.3z"/>
			<path id="&lt;Compound Path&gt;" class="s1" d="m381.3 1177.9q-4.1 0-6.9-2.9-2.8-2.8-2.8-6.8v-295.5q0-4 2.8-6.8 2.8-2.9 6.9-2.9h222.4q4 0 6.8 2.9 2.8 2.8 2.9 6.8v59q-0.1 4-2.9 6.8-2.8 2.8-6.8 2.8h-143.3q-3.3 0-5.7 2.5-2.4 2.4-2.4 5.6v29.1q0 3.2 2.4 5.6 2.4 2.4 5.7 2.4h114.6q4 0 6.9 2.9 2.8 2.8 2.8 6.8v53.7q0 4.1-2.8 6.9-2.9 2.8-6.9 2.8h-114.6q-3.3 0-5.7 2.4-2.4 2.5-2.4 5.7v24.2q0 3.2 2.4 5.6 2.4 2.5 5.7 2.5h143.3q4 0 6.8 2.8 2.8 2.8 2.9 6.9v58.5q-0.1 4-2.9 6.8-2.8 2.9-6.8 2.9z"/>
			<path id="&lt;Compound Path&gt;" class="s2" d="m713.4 863q10.1 0 14.6 8.5l60.5 98.9q1.2 2.4 4.1 2.4 2.8 0 4-2.4l60.5-99.3q5.3-8.1 15-8.1h75.9q3.2 0 4.8 2.7 1.6 2.6-0.4 5.4l-115 184.5q-2.1 3.2-3.3 7.2-1.2 4.1-1.2 7.7v97.7q0 4-2.8 6.8-2.8 2.9-6.9 2.9h-60.9q-4 0-6.9-2.9-2.8-2.8-2.8-6.8v-97.7q0-3.6-1.2-7.7-1.2-4-3.2-7.2l-114.7-184.5q-2-2.8-0.4-5.4 1.6-2.7 4.9-2.7z"/>
			<path id="&lt;Compound Path&gt;" fill-rule="evenodd" class="s3" d="m1102.2 1183.9q-34 0-64.4-12.9-30.5-12.9-53.3-35.1-22.8-22.2-36.1-51.9-13.3-29.6-13.3-63.5 0-34 13.3-63.6 13.3-29.7 36.1-51.9 22.8-22.2 53.3-35.1 30.4-12.9 64.4-12.9 34.3 0 64.7 12.9 30.5 12.9 53.3 35.1 22.8 22.2 35.9 51.9 13.2 29.6 13.2 63.6 0 33.9-13.2 63.5-13.1 29.7-35.9 51.9-22.8 22.2-53.3 35.1-30.4 12.9-64.7 12.9zm0-249q-17.8 0-33.3 6.6-15.6 6.7-27.3 18.2-11.7 11.5-18.4 27.3-6.6 15.7-6.6 33.5 0 17.7 6.6 33.5 6.7 15.7 18.4 27.2 11.7 11.5 27.3 18.2 15.5 6.6 33.3 6.6 18.1 0 33.7-6.6 15.5-6.7 27-18.2 11.5-11.5 18.2-27.2 6.6-15.8 6.6-33.5 0-17.8-6.6-33.5-6.7-15.8-18.2-27.3-11.5-11.5-27-18.2-15.6-6.6-33.7-6.6z"/>
			<path id="&lt;Compound Path&gt;" class="s4" d="m1383.1 1168.2q0 4-2.9 6.8-2.8 2.9-6.8 2.9h-61q-4 0-6.8-2.9-2.8-2.8-2.8-6.8v-295.5q0-4 2.8-6.8 2.8-2.9 6.8-2.9h48.9q10.1 0 15.7 7.7l129.6 161.9q1.2 2 3 1.2 1.8-0.8 1.8-2.9v-158.2q0-4 2.9-6.8 2.8-2.9 6.8-2.9h61q4 0 6.8 2.9 2.9 2.8 2.9 6.8v295.5q0 4-2.9 6.8-2.8 2.9-6.8 2.9h-48.9q-10.1 0-15.7-7.7l-129.6-161.5q-1.2-2-3-1.2-1.8 0.8-1.8 2.9z"/>
			<path id="&lt;Compound Path&gt;" fill-rule="evenodd" class="s5" d="m1649.9 1177.9q-4.1 0-6.9-2.9-2.8-2.8-2.8-6.8v-295.5q0-4 2.8-6.8 2.8-2.9 6.9-2.9h136.4q36.7 0 64.8 12.5 28 12.6 46.6 34.2 18.6 21.6 28.1 50.2 9.5 28.7 9.5 60.6 0 32.2-9.5 60.9-9.5 28.7-28.1 50.1-18.6 21.3-46.6 33.9-28.1 12.5-64.8 12.5zm203.8-157.4q0-35.6-18.5-57.4-18.6-21.8-54.9-21.8h-51.3q-3.2 0-5.6 2.5-2.5 2.4-2.5 5.6v142.5q0 3.2 2.5 5.6 2.4 2.5 5.6 2.5h51.3q18.1 0 31.9-5.9 13.7-5.8 23-16.3 9.3-10.5 13.9-25.1 4.6-14.5 4.6-32.2z"/>
			<path id="&lt;Compound Path&gt;" class="s6" d="m158.5 1264.9q0-2.4 1.6-4.1 1.7-1.6 4.1-1.6h35.9q2.4 0 4 1.6 1.7 1.7 1.7 4.1v111.1q0 18.5-5.6 32.2-5.6 13.7-15.2 22.6-9.7 8.9-22.5 13.2-12.8 4.3-27.4 4.3-14 0-26.8-4.3-12.9-4.3-22.6-13.2-9.8-8.9-15.8-22.6-5.9-13.7-5.9-32.2v-10.5q0-2.4 1.7-4 1.6-1.7 4-1.7h36.2q2.4 0 4 1.7 1.7 1.6 1.7 4v9.8q0 8.3 1.9 13.5 1.9 5.3 5.2 8.4 3.3 3 7.5 4.1 4.2 1.1 8.9 1.1 5.3 0 9.6-1.1 4.2-1.1 7.3-4.1 3.1-3.1 4.8-8.4 1.7-5.2 1.7-13.5z"/>
			<path id="&lt;Compound Path&gt;" class="s7" d="m353.3 1264.9q0-2.4 1.7-4.1 1.6-1.6 4-1.6h35.9q2.4 0 4.1 1.6 1.7 1.7 1.7 4.1v98.7q0 17.8-5.6 33.3-5.6 15.5-16.4 26.9-10.9 11.4-26.8 18-16 6.5-36.7 6.5-20.9 0-36.8-6.5-16-6.6-26.7-18-10.7-11.4-16.2-26.9-5.4-15.5-5.4-33.3v-98.7q0-2.4 1.6-4.1 1.7-1.6 4.1-1.6h36.1q2.4 0 4.1 1.6 1.7 1.7 1.7 4.1v95.8q0 20.3 9.5 31 9.5 10.7 28 10.7 18.8 0 28.5-10.7 9.6-10.7 9.6-31z"/>
			<path id="&lt;Compound Path&gt;" class="s8" d="m498 1448.3q-15.7 0-29.5-3.4-13.8-3.5-24.3-10.2-10.5-6.6-17-16.4-6.6-9.7-7.7-22.6-0.3-2.6 1.6-4.6 1.9-2 4.5-2h32.2q4 0 5.7 1.2 1.6 1.1 3.8 4.9 2.6 4.8 9.9 8.4 7.2 3.5 19.8 3.5 13.3 0 18.5-3.6 5.1-3.7 5.1-7.8 0-5.9-7.4-10.2-7.4-4.3-24.3-10-11.2-3.6-23.2-8.4-12-4.9-22-12.1-10-7.1-16.5-17.3-6.6-10.3-6.6-24.5 0-13.4 5.4-23.9 5.4-10.6 15-18.1 9.6-7.5 22.9-11.6 13.4-4 29.3-4 16.2 0 29.8 4 13.5 4.1 23.5 11.5 10 7.3 15.8 17.7 5.9 10.3 6.8 22.7 0.2 2.6-1.7 4.6-1.9 2.1-4.5 2.1h-33q-3.4 0-5.2-1.6-1.7-1.5-2.9-4.9-2.2-5.9-9-10.4-6.7-4.6-18.6-4.6-12.2 0-17.4 4-5.2 3.9-5.2 8.7 0 5.4 7 9.2 7 3.8 23.7 9.6 9.5 3.3 21.6 8.2 12.1 4.8 22.7 12.3 10.6 7.5 17.9 18.4 7.2 10.8 7.2 26 0 13.6-5.6 23.9-5.6 10.4-15.4 17.3-9.9 6.9-23.3 10.4-13.5 3.6-29.4 3.6z"/>
			<path id="&lt;Compound Path&gt;" class="s9" d="m587.2 1305.3q-2.4 0-4.1-1.7-1.6-1.6-1.6-4v-34.7q0-2.4 1.6-4.1 1.7-1.6 4.1-1.6h151.8q2.4 0 4 1.6 1.7 1.7 1.7 4.1v34.7q0 2.4-1.7 4-1.6 1.7-4 1.7h-47.4q-1.9 0-3.3 1.4-1.4 1.5-1.4 3.4v128.9q0 2.4-1.7 4.1-1.7 1.6-4 1.6h-36.2q-2.4 0-4-1.6-1.7-1.7-1.7-4.1v-128.9q0-1.9-1.4-3.4-1.5-1.4-3.4-1.4z"/>
			<path id="&lt;Compound Path&gt;" class="s10" d="m892.4 1448.3q-15.7 0-29.5-3.4-13.8-3.5-24.2-10.2-10.5-6.6-17-16.4-6.6-9.7-7.8-22.6-0.2-2.6 1.7-4.6 1.9-2 4.5-2h32.1q4.1 0 5.7 1.2 1.7 1.1 3.9 4.9 2.6 4.8 9.8 8.4 7.3 3.5 19.9 3.5 13.3 0 18.4-3.6 5.1-3.7 5.1-7.8 0-5.9-7.3-10.2-7.4-4.3-24.3-10-11.2-3.6-23.2-8.4-12-4.9-22-12.1-10-7.1-16.5-17.3-6.6-10.3-6.6-24.5 0-13.4 5.4-23.9 5.3-10.6 15-18.1 9.6-7.5 22.9-11.6 13.3-4 29.3-4 16.2 0 29.7 4 13.6 4.1 23.6 11.5 10 7.3 15.8 17.7 5.8 10.3 6.8 22.7 0.2 2.6-1.7 4.6-1.9 2.1-4.5 2.1h-33.1q-3.3 0-5.1-1.6-1.8-1.5-3-4.9-2.1-5.9-8.9-10.4-6.8-4.6-18.7-4.6-12.1 0-17.3 4-5.3 3.9-5.3 8.7 0 5.4 7.1 9.2 7 3.8 23.6 9.6 9.5 3.3 21.7 8.2 12.1 4.8 22.7 12.3 10.6 7.5 17.8 18.4 7.3 10.8 7.3 26 0 13.6-5.6 23.9-5.6 10.4-15.5 17.3-9.8 6.9-23.3 10.4-13.4 3.6-29.4 3.6z"/>
			<path id="&lt;Compound Path&gt;" class="s11" d="m993.1 1444.7q-2.4 0-4.1-1.6-1.6-1.7-1.6-4.1v-174.1q0-2.4 1.6-4.1 1.7-1.6 4.1-1.6h131.1q2.4 0 4 1.6 1.7 1.7 1.7 4.1v34.7q0 2.4-1.7 4-1.6 1.7-4 1.7h-84.5q-1.9 0-3.3 1.4-1.4 1.5-1.4 3.4v17.1q0 1.9 1.4 3.3 1.4 1.5 3.3 1.5h67.6q2.4 0 4 1.6 1.7 1.7 1.7 4.1v31.6q0 2.4-1.7 4.1-1.6 1.6-4 1.6h-67.6q-1.9 0-3.3 1.5-1.4 1.4-1.4 3.3v14.3q0 1.9 1.4 3.3 1.4 1.4 3.3 1.4h84.5q2.4 0 4 1.7 1.7 1.7 1.7 4v34.5q0 2.4-1.7 4.1-1.6 1.6-4 1.6z"/>
			<path id="&lt;Compound Path&gt;" fill-rule="evenodd" class="s12" d="m1153 1264.9q0-2.4 1.6-4.1 1.7-1.6 4.1-1.6h84.9q17.9 0 30.9 5.3 13.1 5.4 21.7 14.6 8.6 9.3 12.7 21.7 4.2 12.4 4.2 26.2 0 18.3-7.9 34.3-7.8 16.1-24.5 25.1-1.9 1-2.2 2.8-0.4 1.8 0.8 3.4l34 47.4q1.2 1.6 0.4 3.2-0.8 1.5-2.8 1.5h-45.4q-5.5 0-9-4.7l-29.1-41.2q-1.2-1.9-3.3-2.8-2.1-1-4.3-1h-14.7q-1.9 0-3.4 1.4-1.4 1.5-1.4 3.4v39.2q0 2.4-1.7 4.1-1.6 1.6-4 1.6h-35.9q-2.4 0-4.1-1.6-1.6-1.7-1.6-4.1zm114.2 62.6q0-10.7-6-17.8-5.9-7.2-20.2-7.2h-35.9q-1.9 0-3.4 1.4-1.4 1.5-1.4 3.4v39.9q0 2 1.4 3.4 1.5 1.4 3.4 1.4h35.9q7.1 0 12.1-2 5-2 8.1-5.4 3.1-3.3 4.5-7.8 1.5-4.5 1.5-9.3z"/>
			<path id="&lt;Compound Path&gt;" class="s13" d="m1434.9 1439.5q-0.9 2.4-3.1 3.8-2.1 1.4-4.7 1.4h-35.7q-2.7 0-4.8-1.4-2.1-1.4-3.1-3.8l-70.7-175.1q-0.7-1.9 0.4-3.6 1.1-1.6 3.2-1.6h40.5q2.6 0 4.6 1.4 2 1.4 3 3.8l43 114.9q0.5 1.2 1.7 1.2 1.2 0 1.7-1.2l43.3-114.9q0.9-2.4 2.9-3.8 2.1-1.4 4.7-1.4h40.4q2.2 0 3.2 1.6 1.1 1.7 0.4 3.6z"/>
			<path id="&lt;Compound Path&gt;" class="s14" d="m1522.2 1264.9q0-2.4 1.7-4.1 1.7-1.6 4-1.6h36.2q2.4 0 4 1.6 1.7 1.7 1.7 4.1v174.1q0 2.4-1.7 4.1-1.6 1.6-4 1.6h-36.2q-2.3 0-4-1.6-1.7-1.7-1.7-4.1z"/>
			<path id="&lt;Compound Path&gt;" class="s15" d="m1688.1 1402.4q13.3 0 24-5.8 10.7-5.9 17.6-15.6 3.1-5 8.3-2.6l33.1 14.5q1.9 0.7 2.6 2.9 0.7 2.3-0.5 4.2-6.4 11-15.3 19.9-8.9 8.9-20 15.2-11.1 6.3-23.7 9.8-12.6 3.4-26.1 3.4-20 0-38-7.6-18-7.6-31.4-20.7-13.4-13.1-21.3-30.6-7.8-17.5-7.8-37.5 0-19.9 7.8-37.4 7.9-17.5 21.3-30.6 13.4-13.1 31.4-20.7 18-7.6 38-7.6 13.5 0 26.1 3.4 12.6 3.5 23.5 9.8 10.8 6.3 19.8 15.1 9.1 8.8 15.5 19.5 1.2 1.9 0.5 4.2-0.7 2.2-2.7 3.2l-32.8 14.5q-2.4 1.2-4.6 0.6-2.3-0.6-3.7-3-6.9-9.7-17.7-15.6-10.9-5.8-23.9-5.8-10.5 0-19.7 3.9-9.1 4-16 10.7-6.9 6.8-10.9 16.1-3.9 9.3-3.9 19.7 0 10.5 3.9 19.8 4 9.3 10.9 16.1 6.9 6.7 16 10.7 9.2 3.9 19.7 3.9z"/>
			<path id="&lt;Compound Path&gt;" class="s16" d="m1798.4 1444.7q-2.3 0-4-1.6-1.7-1.7-1.7-4.1v-174.1q0-2.4 1.7-4.1 1.7-1.6 4-1.6h131.1q2.4 0 4.1 1.6 1.6 1.7 1.7 4.1v34.7q-0.1 2.4-1.7 4-1.7 1.7-4.1 1.7h-84.4q-1.9 0-3.3 1.4-1.5 1.5-1.5 3.4v17.1q0 1.9 1.5 3.3 1.4 1.5 3.3 1.5h67.6q2.3 0 4 1.6 1.7 1.7 1.7 4.1v31.6q0 2.4-1.7 4.1-1.7 1.6-4 1.6h-67.6q-1.9 0-3.3 1.5-1.5 1.4-1.5 3.3v14.3q0 1.9 1.5 3.3 1.4 1.4 3.3 1.4h84.4q2.4 0 4.1 1.7 1.6 1.7 1.7 4v34.5q-0.1 2.4-1.7 4.1-1.7 1.6-4.1 1.6z"/>
		</g>
		<path id="&lt;Compound Path&gt;" fill-rule="evenodd" class="s17" d="m1332.5 581.7c-0.9-13.2 11.3-26.4 24.5-26.4h127.2c21.6 0 26.3 4.7 37.6 24.5 13.2 24.5 51.8 47.1 117.7 47.1 70.7 0 93.3-23.5 93.3-45.2 0-31.1-36.8-49.9-125.3-80.1-116.8-38.6-270.3-95.1-270.3-246.7 0-140.3 119.6-227.9 287.3-227.9 171.4 0 291 89.5 300.4 221.3 0.9 13.2-11.3 26.4-24.5 26.4h-130.9c-17.9 0-26.4-8.5-32-25.4-11.3-31.1-47.1-59.4-109.3-59.4-64 0-89.4 25.5-89.4 49.9 0 29.2 33.9 44.3 121.5 74.4 101.7 35.8 275 96.1 275 257.1 0 143.2-124.4 218.5-292 218.5-166.7 0-297.6-73.4-310.8-208.1zm-227.9-518c0-12.2 10.4-22.6 22.6-22.6h142.2c12.3 0 22.6 10.4 22.6 22.6v439.8c0 196.9-127.1 286.3-279.7 286.3-146.9 0-281.6-89.4-281.6-286.3v-41.4c0-12.3 10.4-22.6 22.7-22.6h143.1c12.2 0 22.6 10.3 22.6 22.6v38.6c0 87.6 44.3 107.4 93.2 107.4 54.7 0 92.3-19.8 92.3-107.4zm-1018 712c-12.2 0-22.6-10.4-22.6-22.6v-689.4c0-12.2 10.4-22.6 22.6-22.6h342.8c158.2 0 238.3 85.7 238.3 202.5 0 66.8-28.3 113.9-73.5 145-6.6 4.7-6.6 13.2 1 17 64.9 30.1 105.4 83.8 105.4 162.9 0 121.5-90.4 207.2-239.2 207.2zm354.1-299.5h-169.5c-10.4 0-18.8 8.5-18.8 18.8v91.4c0 10.3 8.4 18.8 18.8 18.8h169.5c50.9 0 69.7-27.3 69.7-65.9 0-37.7-18.8-63.1-69.7-63.1zm-22.6-263.7h-146.9c-10.4 0-18.8 8.5-18.8 18.8v79.1c0 10.4 8.4 18.9 18.8 18.9h136.6c50.8 0 69.6-23.6 69.6-58.4 0-34.9-19.7-58.4-59.3-58.4z"/>
	</g>
</svg>