<svg version="1.2" xmlns="http://www.w3.org/2000/svg" viewBox="0 0 2000 1579" width="2000" height="1579">
	<title>Beyond Just Service Logo-ai</title>
	<defs>
		<linearGradient id="g1" x2="1" gradientUnits="userSpaceOnUse" gradientTransform="matrix(0,2430.529,-2106.447,0,400.339,674.054)">
			<stop offset="0" stop-color="#503c80"/>
			<stop offset="1" stop-color="#7c4983"/>
		</linearGradient>
		<linearGradient id="g2" x2="1" gradientUnits="userSpaceOnUse" gradientTransform="matrix(0,2512.219,-1929.268,0,706.577,322.564)">
			<stop offset="0" stop-color="#503c80"/>
			<stop offset="1" stop-color="#7c4983"/>
		</linearGradient>
		<linearGradient id="g3" x2="1" gradientUnits="userSpaceOnUse" gradientTransform="matrix(0,2140.435,-2183.125,0,949.196,130.202)">
			<stop offset="0" stop-color="#503c80"/>
			<stop offset="1" stop-color="#7c4983"/>
		</linearGradient>
		<linearGradient id="g4" x2="1" gradientUnits="userSpaceOnUse" gradientTransform="matrix(0,2123.726,-2170.838,0,1254.85,-139.099)">
			<stop offset="0" stop-color="#503c80"/>
			<stop offset="1" stop-color="#7c4983"/>
		</linearGradient>
		<linearGradient id="g5" x2="1" gradientUnits="userSpaceOnUse" gradientTransform="matrix(0,2142.481,-1966.677,0,1601.177,-478.501)">
			<stop offset="0" stop-color="#503c80"/>
			<stop offset="1" stop-color="#7c4983"/>
		</linearGradient>
		<linearGradient id="g6" x2="1" gradientUnits="userSpaceOnUse" gradientTransform="matrix(0,2202.052,-2063.707,0,1928.361,-847.505)">
			<stop offset="0" stop-color="#503c80"/>
			<stop offset="1" stop-color="#7c4983"/>
		</linearGradient>
		<linearGradient id="g7" x2="1" gradientUnits="userSpaceOnUse" gradientTransform="matrix(0,2675.144,-2005.495,0,282.834,1062.348)">
			<stop offset="0" stop-color="#503c80"/>
			<stop offset="1" stop-color="#7c4983"/>
		</linearGradient>
		<linearGradient id="g8" x2="1" gradientUnits="userSpaceOnUse" gradientTransform="matrix(0,2270.83,-2048.001,0,437.397,928.135)">
			<stop offset="0" stop-color="#503c80"/>
			<stop offset="1" stop-color="#7c4983"/>
		</linearGradient>
		<linearGradient id="g9" x2="1" gradientUnits="userSpaceOnUse" gradientTransform="matrix(0,2650.963,-2094.947,0,628.961,643.691)">
			<stop offset="0" stop-color="#503c80"/>
			<stop offset="1" stop-color="#7c4983"/>
		</linearGradient>
		<linearGradient id="g10" x2="1" gradientUnits="userSpaceOnUse" gradientTransform="matrix(0,2426.056,-2133.702,0,775.661,516.012)">
			<stop offset="0" stop-color="#503c80"/>
			<stop offset="1" stop-color="#7c4983"/>
		</linearGradient>
		<linearGradient id="g11" x2="1" gradientUnits="userSpaceOnUse" gradientTransform="matrix(0,2651.026,-2094.943,0,1012.003,178.608)">
			<stop offset="0" stop-color="#503c80"/>
			<stop offset="1" stop-color="#7c4983"/>
		</linearGradient>
		<linearGradient id="g12" x2="1" gradientUnits="userSpaceOnUse" gradientTransform="matrix(0,2512.26,-1929.265,0,1174.621,51.658)">
			<stop offset="0" stop-color="#503c80"/>
			<stop offset="1" stop-color="#7c4983"/>
		</linearGradient>
		<linearGradient id="g13" x2="1" gradientUnits="userSpaceOnUse" gradientTransform="matrix(0,2346.235,-2036.261,0,1330.91,-39.112)">
			<stop offset="0" stop-color="#503c80"/>
			<stop offset="1" stop-color="#7c4983"/>
		</linearGradient>
		<linearGradient id="g14" x2="1" gradientUnits="userSpaceOnUse" gradientTransform="matrix(0,2093.322,-2182.967,0,1484.227,-61.746)">
			<stop offset="0" stop-color="#503c80"/>
			<stop offset="1" stop-color="#7c4983"/>
		</linearGradient>
		<linearGradient id="g15" x2="1" gradientUnits="userSpaceOnUse" gradientTransform="matrix(0,180.202,-46.206,0,1881.946,1292.678)">
			<stop offset="0" stop-color="#503c80"/>
			<stop offset="1" stop-color="#7c4983"/>
		</linearGradient>
		<linearGradient id="g16" x2="1" gradientUnits="userSpaceOnUse" gradientTransform="matrix(0,2218.014,-2122.445,0,1760.151,-409.145)">
			<stop offset="0" stop-color="#503c80"/>
			<stop offset="1" stop-color="#7c4983"/>
		</linearGradient>
		<linearGradient id="g17" x2="1" gradientUnits="userSpaceOnUse" gradientTransform="matrix(0,2512.26,-1929.265,0,1956.647,-848.135)">
			<stop offset="0" stop-color="#503c80"/>
			<stop offset="1" stop-color="#7c4983"/>
		</linearGradient>
	</defs>
	<style>
		.s0 { fill: url(#g1) } 
		.s1 { fill: url(#g2) } 
		.s2 { fill: url(#g3) } 
		.s3 { fill: url(#g4) } 
		.s4 { fill: url(#g5) } 
		.s5 { fill: url(#g6) } 
		.s6 { fill: url(#g7) } 
		.s7 { fill: url(#g8) } 
		.s8 { fill: url(#g9) } 
		.s9 { fill: url(#g10) } 
		.s10 { fill: url(#g11) } 
		.s11 { fill: url(#g12) } 
		.s12 { fill: url(#g13) } 
		.s13 { fill: url(#g14) } 
		.s14 { fill: url(#g15) } 
		.s15 { fill: url(#g16) } 
		.s16 { fill: url(#g17) } 
		.s17 { fill: #fdc10c } 
	</style>
	<g id="Layer 1">
		<g id="&lt;Group&gt;">
			<path id="&lt;Compound Path&gt;" fill-rule="evenodd" class="s0" d="m100.9 1213.7q-3.9 0.1-6.7-2.7-2.7-2.7-2.7-6.7v-286.9q0-3.9 2.7-6.6 2.8-2.8 6.7-2.8h142.7q24.7 0 43.3 6.3 18.6 6.3 30.9 17.6 12.4 11.4 18.7 26.9 6.2 15.5 6.2 33.5 0 21.2-8.2 35.9-8.2 14.7-22.3 24.5-2 1.5-2 3.7 0 2.1 2.3 3.3 20.4 9.4 32.2 26.3 11.7 16.8 11.7 41.5 0 18.8-6.8 34.7-6.9 15.9-19.8 27.4-12.9 11.6-31.4 17.9-18.4 6.2-41.5 6.2zm162.6-210q0-11-6-17.7-6.1-6.6-18.7-6.6h-61.1q-3.1 0-5.5 2.3-2.3 2.4-2.3 5.5v32.9q0 3.2 2.3 5.5 2.4 2.4 5.5 2.4h56.8q16.1 0 22.6-6.7 6.4-6.7 6.4-17.6zm13.8 111.7q0-11.8-6.5-19-6.5-7.3-22.5-7.3h-70.6q-3.1 0-5.5 2.4-2.3 2.3-2.3 5.5v38q0 3.1 2.3 5.5 2.4 2.3 5.5 2.3h70.6q16 0 22.5-7.6 6.5-7.7 6.5-19.8z"/>
			<path id="&lt;Compound Path&gt;" class="s1" d="m399.6 1213.7q-4 0.1-6.7-2.7-2.8-2.7-2.8-6.7v-286.9q0-3.9 2.8-6.6 2.7-2.8 6.7-2.8h215.9q3.9 0 6.7 2.8 2.7 2.7 2.7 6.6v57.3q0 3.9-2.7 6.6-2.8 2.8-6.7 2.8h-139.1q-3.2 0-5.5 2.3-2.4 2.4-2.4 5.5v28.2q0 3.2 2.4 5.5 2.3 2.4 5.5 2.4h111.3q3.9 0 6.6 2.7 2.8 2.8 2.8 6.7v52.1q0 3.9-2.8 6.7-2.7 2.7-6.6 2.7h-111.3q-3.2 0-5.5 2.4-2.4 2.3-2.4 5.4v23.6q0 3.1 2.4 5.5 2.3 2.3 5.5 2.3h139.1q3.9 0 6.7 2.7 2.7 2.8 2.7 6.7v56.8q0 4-2.7 6.7-2.8 2.8-6.7 2.7z"/>
			<path id="&lt;Compound Path&gt;" class="s2" d="m722.1 908q9.8 0 14.1 8.3l58.8 96q1.2 2.3 3.9 2.3 2.8 0 4-2.3l58.7-96.4q5.1-7.9 14.6-7.9h73.6q3.2 0 4.7 2.6 1.6 2.5-0.4 5.3l-111.7 179.1q-1.9 3.1-3.1 7-1.2 4-1.2 7.5v94.8q0 4-2.7 6.7-2.8 2.8-6.7 2.7h-59.2q-3.9 0.1-6.6-2.7-2.8-2.7-2.8-6.7v-94.8q0-3.5-1.1-7.5-1.2-3.9-3.2-7l-111.3-179.1q-2-2.8-0.4-5.3 1.6-2.6 4.7-2.6z"/>
			<path id="&lt;Compound Path&gt;" fill-rule="evenodd" class="s3" d="m1099.6 1219.6q-33 0-62.6-12.5-29.6-12.6-51.7-34.1-22.1-21.6-35.1-50.4-12.9-28.8-12.9-61.7 0-32.9 12.9-61.7 13-28.8 35.1-50.4 22.1-21.6 51.7-34.1 29.6-12.5 62.6-12.5 33.3 0 62.9 12.5 29.6 12.5 51.7 34.1 22.1 21.6 34.9 50.4 12.7 28.8 12.7 61.7 0 32.9-12.7 61.7-12.8 28.8-34.9 50.4-22.1 21.5-51.7 34.1-29.6 12.5-62.9 12.5zm0-241.8q-17.3 0-32.4 6.5-15.1 6.4-26.4 17.6-11.4 11.2-17.9 26.5-6.4 15.2-6.4 32.5 0 17.2 6.4 32.5 6.5 15.3 17.9 26.5 11.3 11.2 26.4 17.6 15.1 6.5 32.4 6.5 17.6 0 32.7-6.5 15.1-6.4 26.2-17.6 11.2-11.2 17.7-26.5 6.4-15.3 6.4-32.5 0-17.3-6.4-32.5-6.5-15.3-17.7-26.5-11.1-11.2-26.2-17.6-15.1-6.5-32.7-6.5z"/>
			<path id="&lt;Compound Path&gt;" class="s4" d="m1372.3 1204.3q0 4-2.7 6.7-2.8 2.8-6.7 2.7h-59.1q-4 0.1-6.7-2.7-2.8-2.7-2.8-6.7v-286.9q0-3.9 2.8-6.6 2.7-2.8 6.7-2.8h47.4q9.8 0 15.3 7.5l125.8 157.2q1.1 1.9 2.9 1.1 1.8-0.8 1.8-2.7v-153.7q0-3.9 2.7-6.6 2.8-2.8 6.7-2.8h59.2q3.9 0 6.6 2.8 2.8 2.7 2.8 6.6v286.9q0 4-2.8 6.7-2.7 2.8-6.6 2.7h-47.5q-9.8 0.1-15.2-7.4l-125.9-156.8q-1.1-1.9-2.9-1.2-1.8 0.8-1.8 2.8z"/>
			<path id="&lt;Compound Path&gt;" fill-rule="evenodd" class="s5" d="m1631.4 1213.7q-3.9 0.1-6.7-2.7-2.7-2.7-2.7-6.7v-286.9q0-3.9 2.7-6.6 2.8-2.8 6.7-2.8h132.5q35.6 0 62.9 12.2 27.2 12.1 45.3 33.1 18 21 27.2 48.8 9.2 27.8 9.2 58.8 0 31.4-9.2 59.2-9.2 27.8-27.2 48.6-18.1 20.8-45.3 32.9-27.3 12.1-62.9 12.1zm197.9-152.8q0-34.5-18-55.7-18.1-21.1-53.3-21.1h-49.8q-3.1 0-5.5 2.3-2.3 2.4-2.3 5.5v138.4q0 3.1 2.3 5.5 2.4 2.3 5.5 2.3h49.8q17.6 0 30.9-5.7 13.4-5.7 22.4-15.9 9-10.1 13.5-24.3 4.5-14.1 4.5-31.3z"/>
			<path id="&lt;Compound Path&gt;" class="s6" d="m183.2 1298.2q0-2.3 1.6-3.9 1.6-1.6 4-1.6h34.8q2.3 0 4 1.6 1.6 1.6 1.6 3.9v107.9q0 18-5.4 31.3-5.5 13.3-14.8 22-9.4 8.6-21.9 12.8-12.4 4.1-26.5 4.1-13.7 0-26.1-4.1-12.5-4.2-22-12.8-9.5-8.7-15.2-22-5.8-13.3-5.8-31.3v-10.2q0-2.3 1.6-3.9 1.6-1.6 3.9-1.6h35.1q2.4 0 4 1.6 1.6 1.6 1.6 3.9v9.5q0 8.1 1.8 13.2 1.9 5.1 5.1 8.1 3.3 3 7.3 4 4 1.1 8.7 1.1 5 0 9.2-1.1 4.2-1 7.2-4 3-3 4.6-8.1 1.6-5.1 1.6-13.2z"/>
			<path id="&lt;Compound Path&gt;" class="s7" d="m372.4 1298.2q0-2.3 1.6-3.9 1.7-1.6 4-1.6h34.8q2.4 0 4 1.6 1.6 1.6 1.6 3.9v95.9q0 17.3-5.4 32.3-5.5 15.1-16 26.1-10.5 11.1-26 17.5-15.4 6.3-35.5 6.3-20.4 0-35.9-6.3-15.4-6.4-25.8-17.5-10.4-11-15.7-26.1-5.4-15-5.4-32.3v-95.9q0-2.3 1.7-3.9 1.6-1.6 3.9-1.6h35.1q2.3 0 3.9 1.6 1.7 1.6 1.7 3.9v93.1q0 19.7 9.2 30.1 9.2 10.4 27.3 10.4 18.2 0 27.6-10.4 9.3-10.4 9.3-30.1z"/>
			<path id="&lt;Compound Path&gt;" class="s8" d="m512.9 1476.3q-15.3 0-28.7-3.3-13.4-3.4-23.5-9.8-10.2-6.5-16.5-16-6.4-9.4-7.6-21.9-0.2-2.6 1.7-4.5 1.8-2 4.4-2h31.1q4 0 5.6 1.2 1.6 1.1 3.7 4.8 2.5 4.6 9.6 8.1 7 3.5 19.3 3.5 12.9 0 17.9-3.6 4.9-3.6 4.9-7.5 0-5.8-7.1-9.9-7.2-4.2-23.6-9.7-10.9-3.5-22.5-8.3-11.7-4.7-21.4-11.6-9.7-6.9-16-16.9-6.4-9.9-6.4-23.8 0-12.9 5.2-23.2 5.2-10.3 14.6-17.6 9.3-7.2 22.2-11.2 13-3.9 28.5-3.9 15.7 0 28.8 3.9 13.2 4 22.9 11.1 9.7 7.2 15.4 17.2 5.6 10.1 6.6 22.1 0.2 2.5-1.7 4.5-1.8 2-4.3 2h-32.2q-3.2 0-4.9-1.5-1.8-1.5-2.9-4.8-2.1-5.7-8.7-10.1-6.6-4.4-18.1-4.4-11.8 0-16.9 3.8-5.1 3.8-5.1 8.4 0 5.3 6.9 9 6.8 3.7 22.9 9.3 9.3 3.2 21.1 7.9 11.7 4.8 22 12.1 10.3 7.2 17.4 17.7 7 10.6 7 25.3 0 13.2-5.4 23.3-5.5 10-15 16.7-9.6 6.7-22.7 10.2-13 3.4-28.5 3.4z"/>
			<path id="&lt;Compound Path&gt;" class="s9" d="m599.5 1337.5q-2.3 0-3.9-1.6-1.6-1.6-1.6-3.9v-33.8q0-2.3 1.6-3.9 1.6-1.6 3.9-1.6h147.4q2.3 0 3.9 1.6 1.7 1.6 1.7 3.9v33.8q0 2.3-1.7 3.9-1.6 1.6-3.9 1.6h-46q-1.8 0-3.2 1.4-1.4 1.4-1.4 3.2v125.2q0 2.3-1.6 4-1.6 1.6-3.9 1.6h-35.1q-2.4 0-4-1.6-1.6-1.7-1.6-4v-125.2q0-1.8-1.4-3.2-1.4-1.4-3.2-1.4z"/>
			<path id="&lt;Compound Path&gt;" class="s10" d="m895.9 1476.3q-15.2 0-28.6-3.3-13.4-3.4-23.6-9.8-10.2-6.5-16.5-16-6.4-9.4-7.5-21.9-0.2-2.6 1.6-4.5 1.8-2 4.4-2h31.2q3.9 0 5.5 1.2 1.6 1.1 3.7 4.8 2.6 4.6 9.6 8.1 7.1 3.5 19.3 3.5 12.9 0 17.9-3.6 5-3.6 5-7.5 0-5.8-7.2-9.9-7.2-4.2-23.6-9.7-10.8-3.5-22.5-8.3-11.7-4.7-21.4-11.6-9.7-6.9-16-16.9-6.4-9.9-6.4-23.8 0-12.9 5.2-23.2 5.2-10.3 14.6-17.6 9.3-7.2 22.3-11.2 12.9-3.9 28.4-3.9 15.7 0 28.9 3.9 13.1 4 22.9 11.1 9.7 7.2 15.3 17.2 5.7 10.1 6.6 22.1 0.2 2.5-1.6 4.5-1.9 2-4.4 2h-32.1q-3.3 0-5-1.5-1.7-1.5-2.9-4.8-2.1-5.7-8.6-10.1-6.6-4.4-18.2-4.4-11.8 0-16.8 3.8-5.1 3.8-5.1 8.4 0 5.3 6.8 9 6.8 3.7 23 9.3 9.2 3.2 21 7.9 11.8 4.8 22.1 12.1 10.2 7.2 17.3 17.7 7 10.6 7 25.3 0 13.2-5.4 23.3-5.4 10-15 16.7-9.6 6.7-22.6 10.2-13.1 3.4-28.6 3.4z"/>
			<path id="&lt;Compound Path&gt;" class="s11" d="m993.6 1472.9q-2.3 0-3.9-1.6-1.6-1.7-1.6-4v-169.1q0-2.3 1.6-3.9 1.6-1.6 3.9-1.6h127.3q2.4 0 4 1.6 1.6 1.6 1.6 3.9v33.8q0 2.3-1.6 3.9-1.6 1.6-4 1.6h-82q-1.8 0-3.2 1.4-1.4 1.4-1.4 3.2v16.7q0 1.8 1.4 3.2 1.4 1.4 3.2 1.4h65.6q2.4 0 4 1.6 1.6 1.6 1.6 3.9v30.7q0 2.4-1.6 4-1.6 1.6-4 1.6h-65.6q-1.8 0-3.2 1.4-1.4 1.4-1.4 3.2v13.9q0 1.8 1.4 3.2 1.4 1.4 3.2 1.4h82q2.4 0 4 1.6 1.6 1.6 1.6 3.9v33.5q0 2.3-1.6 4-1.6 1.6-4 1.6z"/>
			<path id="&lt;Compound Path&gt;" fill-rule="evenodd" class="s12" d="m1148.9 1298.2q0-2.3 1.6-3.9 1.6-1.6 3.9-1.6h82.5q17.4 0 30.1 5.2 12.7 5.2 21 14.2 8.3 9 12.3 21 4.1 12 4.1 25.4 0 17.8-7.6 33.4-7.7 15.6-23.8 24.4-1.9 0.9-2.2 2.6-0.4 1.8 0.8 3.4l33 46q1.2 1.6 0.4 3.1-0.9 1.5-2.7 1.5h-44.1q-5.3 0-8.8-4.6l-28.2-40q-1.1-1.9-3.2-2.8-2.1-0.9-4.2-0.9h-14.3q-1.9 0-3.2 1.4-1.4 1.4-1.4 3.2v38.1q0 2.3-1.6 4-1.7 1.6-4 1.6h-34.9q-2.3 0-3.9-1.6-1.6-1.7-1.6-4zm110.9 60.8q0-10.4-5.8-17.3-5.8-7-19.6-7h-34.9q-1.9 0-3.2 1.4-1.4 1.4-1.4 3.3v38.8q0 1.8 1.4 3.2 1.3 1.4 3.2 1.4h34.9q6.9 0 11.8-2 4.8-1.9 7.8-5.2 3-3.2 4.4-7.6 1.4-4.4 1.4-9z"/>
			<path id="&lt;Compound Path&gt;" class="s13" d="m1422.7 1467.8q-1 2.3-3 3.7-2.1 1.4-4.7 1.4h-34.6q-2.6 0-4.6-1.4-2.1-1.4-3-3.7l-68.7-170q-0.7-1.9 0.4-3.5 1-1.6 3.1-1.6h39.3q2.5 0 4.5 1.4 2 1.4 2.9 3.7l41.8 111.5q0.5 1.2 1.6 1.2 1.2 0 1.6-1.2l42.1-111.5q0.9-2.3 2.9-3.7 1.9-1.4 4.5-1.4h39.2q2.1 0 3.2 1.6 1 1.6 0.3 3.5z"/>
			<path id="&lt;Compound Path&gt;" class="s14" d="m1507.5 1298.2q0-2.3 1.6-3.9 1.6-1.6 3.9-1.6h35.1q2.3 0 3.9 1.6 1.7 1.6 1.7 3.9v169.1q0 2.3-1.7 4-1.6 1.6-3.9 1.6h-35.1q-2.3 0-3.9-1.6-1.6-1.7-1.6-4z"/>
			<path id="&lt;Compound Path&gt;" class="s15" d="m1668.5 1431.8q12.9 0 23.3-5.7 10.4-5.7 17.1-15.1 3-4.9 8.1-2.6l32.1 14.1q1.9 0.7 2.5 2.9 0.7 2.2-0.4 4-6.3 10.7-14.9 19.3-8.7 8.7-19.4 14.8-10.8 6.1-23 9.5-12.3 3.3-25.4 3.3-19.4 0-36.9-7.3-17.4-7.4-30.5-20.1-13-12.8-20.6-29.7-7.7-17-7.7-36.4 0-19.4 7.7-36.4 7.6-17 20.6-29.7 13.1-12.7 30.5-20.1 17.5-7.4 36.9-7.4 13.1 0 25.4 3.4 12.2 3.3 22.7 9.4 10.6 6.2 19.3 14.7 8.8 8.5 15.1 18.9 1.1 1.9 0.4 4.1-0.7 2.2-2.5 3.1l-31.9 14.1q-2.3 1.2-4.5 0.6-2.2-0.6-3.6-2.9-6.7-9.5-17.2-15.1-10.5-5.7-23.2-5.7-10.2 0-19.1 3.8-8.9 3.8-15.6 10.4-6.7 6.6-10.5 15.6-3.8 9-3.8 19.2 0 10.1 3.8 19.2 3.8 9 10.5 15.5 6.7 6.6 15.6 10.4 8.9 3.9 19.1 3.9z"/>
			<path id="&lt;Compound Path&gt;" class="s16" d="m1775.7 1472.9q-2.3 0-4-1.6-1.6-1.7-1.6-4v-169.1q0-2.3 1.6-3.9 1.7-1.6 4-1.6h127.3q2.3 0 3.9 1.6 1.6 1.6 1.6 3.9v33.8q0 2.3-1.6 3.9-1.6 1.6-3.9 1.6h-82q-1.9 0-3.3 1.4-1.4 1.4-1.4 3.2v16.7q0 1.8 1.4 3.2 1.4 1.4 3.3 1.4h65.6q2.3 0 3.9 1.6 1.6 1.6 1.6 3.9v30.7q0 2.4-1.6 4-1.6 1.6-3.9 1.6h-65.6q-1.9 0-3.3 1.4-1.4 1.4-1.4 3.2v13.9q0 1.8 1.4 3.2 1.4 1.4 3.3 1.4h82q2.3 0 3.9 1.6 1.6 1.6 1.6 3.9v33.5q0 2.3-1.6 4-1.6 1.6-3.9 1.6z"/>
		</g>
		<path id="&lt;Compound Path&gt;" fill-rule="evenodd" class="s17" d="m1323.3 634.9c-1-12.9 10.9-25.7 23.7-25.7h123.5c21 0 25.6 4.6 36.6 23.8 12.8 23.8 50.3 45.7 114.3 45.7 68.6 0 90.5-22.8 90.5-43.8 0-30.2-35.7-48.5-121.6-77.8-113.4-37.5-262.5-92.3-262.5-239.6 0-136.2 116.2-221.3 278.9-221.3 166.5 0 282.6 86.9 291.7 214.9 1 12.8-10.9 25.6-23.7 25.6h-127.1c-17.4 0-25.6-8.2-31.1-24.7-11-30.1-45.7-57.6-106.1-57.6-62.2 0-86.9 24.7-86.9 48.5 0 28.3 32.9 43 118 72.2 98.7 34.8 267 93.3 267 249.7 0 139-120.7 212.1-283.5 212.1-161.8 0-288.9-71.3-301.7-202zm-221.3-503c0-11.9 10-22 21.9-22h138.1c11.9 0 21.9 10.1 21.9 22v427c0 191.2-123.4 278-271.6 278-142.6 0-273.4-86.8-273.4-278v-40.2c0-11.9 10.1-21.9 22-21.9h139c11.9 0 21.9 10 21.9 21.9v37.5c0 85 43 104.3 90.5 104.3 53.1 0 89.7-19.3 89.7-104.3zm-988.6 691.3c-11.8 0-21.9-10-21.9-21.9v-669.4c0-11.9 10.1-21.9 21.9-21.9h332.9c153.6 0 231.4 83.2 231.4 196.6 0 64.9-27.5 110.6-71.4 140.8-6.4 4.6-6.4 12.8 1 16.5 63 29.2 102.4 81.3 102.4 158.2 0 117.9-87.8 201.1-232.3 201.1zm343.8-290.8h-164.6c-10 0-18.3 8.3-18.3 18.3v88.7c0 10.1 8.3 18.3 18.3 18.3h164.6c49.4 0 67.7-26.5 67.7-64 0-36.6-18.3-61.3-67.7-61.3zm-21.9-256h-142.7c-10 0-18.3 8.2-18.3 18.3v76.8c0 10 8.3 18.3 18.3 18.3h132.6c49.4 0 67.7-22.9 67.7-56.7 0-33.8-19.2-56.7-57.6-56.7z"/>
	</g>
</svg>