<svg width="71" height="63" viewBox="0 0 71 63" fill="none" xmlns="http://www.w3.org/2000/svg">
<path d="M48.3196 7.87509H68.8478L71 9.87697e-05H23.6671V43.3125H59.1668L61.3189 35.4375H48.3196C47.7748 35.4375 47.3335 34.997 47.3335 34.4532V32.4844C47.3335 31.9406 47.7748 31.5 48.3196 31.5H62.3938L64.546 23.6251H48.3196C47.7748 23.6251 47.3335 23.1846 47.3335 22.6407V20.6719C47.3335 20.1281 47.7748 19.6876 48.3196 19.6876H65.6208L67.773 11.8126H48.3196C47.7748 11.8126 47.3335 11.3721 47.3335 10.8282V8.85946C47.3335 8.31559 47.7748 7.87509 48.3196 7.87509ZM19.5747 41.222L16.397 33.438C16.0544 32.6001 15.189 32.0858 14.272 32.1756L8.72144 32.7194C6.59146 26.9436 6.54585 20.4418 8.72144 14.543L14.272 15.0869C15.1878 15.1767 16.0544 14.6611 16.397 13.8244L19.5747 6.04046C19.947 5.13115 19.5994 4.09017 18.7513 3.57091L13.9096 0.605488C12.1432 -0.476092 9.87272 -0.0614245 8.49957 1.47297C-2.91087 14.2206 -2.84061 33.4097 8.75842 46.0762C9.97503 47.4051 12.3478 47.6118 13.8923 46.6668L18.7501 43.6915C19.5994 43.1723 19.9458 42.1325 19.5747 41.222ZM59.1668 47.25H23.6671C19.3097 47.25 15.7782 50.7753 15.7782 55.125V59.0625C15.7782 61.2367 17.5446 63 19.7227 63H63.1112C65.2892 63 67.0556 61.2367 67.0556 59.0625V55.125C67.0556 50.7753 63.5241 47.25 59.1668 47.25ZM41.4169 59.0625C39.2389 59.0625 37.4725 57.2992 37.4725 55.125C37.4725 52.9508 39.2389 51.1875 41.4169 51.1875C43.595 51.1875 45.3613 52.9508 45.3613 55.125C45.3613 57.2992 43.595 59.0625 41.4169 59.0625Z" fill="#562479"/>
</svg>
