<svg version="1.2" xmlns="http://www.w3.org/2000/svg" viewBox="0 0 105 20" width="105" height="20">
	<title>starmid-svg</title>
	<defs>
		<clipPath clipPathUnits="userSpaceOnUse" id="cp1">
			<path d="m110.8-4.23h4.7v4.7h-4.7z"/>
		</clipPath>
	</defs>
	<style>
		.s0 { fill: #00b67a } 
		.s1 { fill: #1a3727 } 
		.s2 { fill: #ffb600 } 
		.s3 { fill: #848484 } 
		.s4 { fill: #ffffff } 
		.s5 { fill: #000000 } 
		.s6 { fill: #696969 } 
	</style>
	<path id="Layer" class="s0" d="m11-24l2.5 7.6h8l-6.5 4.7 2.5 7.6-6.5-4.7-6.5 4.7 2.5-7.6-6.5-4.7h8z"/>
	<path id="Layer" class="s1" d="m15.3-10.7l-0.3-1.1-2.6 2.5z"/>
	<path id="Layer" class="s2" d="m1 0h19v20h-19z"/>
	<path id="Layer" class="s2" d="m22 0h19v20h-19z"/>
	<path id="Layer" class="s3" d="m85 0h19v20h-19z"/>
	<path id="Layer" class="s3" d="m64 0h19v20h-19z"/>
	<path id="Layer" class="s2" d="m43 0h19v20h-19z"/>
	<path id="Layer" class="s2" d="m64 0h10v20h-10z"/>
	<path id="Layer" class="s4" d="m10.5 4l1.5 4.5h4.7l-3.8 2.8 1.4 4.5-3.8-2.8-3.8 2.8 1.4-4.5-3.8-2.8h4.7z"/>
	<path id="Layer" class="s4" d="m31.5 4l1.5 4.5h4.7l-3.8 2.8 1.4 4.5-3.8-2.8-3.8 2.8 1.4-4.5-3.8-2.8h4.7z"/>
	<path id="Layer" class="s4" d="m94.5 4l1.5 4.5h4.7l-3.8 2.8 1.4 4.5-3.8-2.8-3.8 2.8 1.4-4.5-3.8-2.8h4.7z"/>
	<path id="Layer" class="s3" d="m97.1 11.9l-0.2-0.7-1.6 1.5z"/>
	<path id="Layer" class="s4" d="m73.5 4l1.5 4.5h4.7l-3.8 2.8 1.4 4.5-3.8-2.8-3.8 2.8 1.4-4.5-3.8-2.8h4.7z"/>
	<path id="Layer" class="s3" d="m76.1 11.9l-0.2-0.7-1.6 1.5z"/>
	<path id="Layer" class="s4" d="m52.5 3l1.5 4.5h4.7l-3.8 2.8 1.4 4.5-3.8-2.8-3.8 2.8 1.4-4.5-3.8-2.8h4.7z"/>
	<path id="Layer" fill-rule="evenodd" class="s5" d="m33.2-18.5v1.7h-2.8v8.8h-2.1v-8.8h-2.8v-1.7zm3.6 3.5q0.4-0.7 1.1-1.1 0.6-0.3 1.5-0.3v2.2h-0.6q-1 0-1.5 0.4-0.5 0.5-0.5 1.7v4.1h-2.1v-8.3h2.1zm11.8-1.3v8.3h-2.1v-1q-0.4 0.5-1.1 0.8-0.6 0.3-1.4 0.3-0.9 0-1.7-0.4-0.7-0.4-1.2-1.2-0.4-0.8-0.4-1.9v-4.9h2.1v4.6q0 1 0.5 1.5 0.5 0.5 1.3 0.5 0.9 0 1.4-0.5 0.5-0.5 0.5-1.5v-4.6zm5.3 8.4q-1.1 0-1.9-0.3-0.8-0.4-1.3-1-0.4-0.7-0.5-1.4h2.1q0.1 0.5 0.5 0.8 0.4 0.3 1 0.3 0.6 0 1-0.2 0.3-0.3 0.3-0.7 0-0.4-0.4-0.6-0.4-0.2-1.3-0.4-0.9-0.2-1.5-0.5-0.6-0.2-1.1-0.7-0.4-0.5-0.4-1.3 0-0.7 0.4-1.3 0.4-0.6 1.2-0.9 0.7-0.3 1.7-0.3 1.5 0 2.4 0.7 0.9 0.7 1 2h-2.1q0-0.5-0.4-0.8-0.3-0.3-1-0.3-0.5 0-0.8 0.2-0.3 0.2-0.3 0.6 0 0.4 0.4 0.7 0.4 0.2 1.3 0.4 0.9 0.2 1.5 0.5 0.6 0.2 1 0.7 0.4 0.5 0.4 1.3 0 0.8-0.4 1.3-0.4 0.6-1.1 0.9-0.8 0.3-1.7 0.3zm7.4-6.7v4q0 0.5 0.2 0.7 0.2 0.1 0.7 0.1h1v1.8h-1.4q-2.6 0-2.6-2.6v-4h-1v-1.7h1v-2.1h2.1v2.1h1.9v1.7zm5.4-0.5q0.4-0.6 1.1-0.9 0.8-0.4 1.7-0.4 1 0 1.9 0.5 0.9 0.5 1.4 1.5 0.5 0.9 0.5 2.2 0 1.3-0.5 2.3-0.5 1-1.4 1.5-0.9 0.5-1.9 0.5-0.9 0-1.6-0.3-0.7-0.4-1.2-1v5.2h-2.1v-12.3h2.1zm4.4 2.9q0-0.7-0.3-1.3-0.3-0.5-0.8-0.8-0.5-0.3-1.1-0.3-0.6 0-1.1 0.3-0.5 0.3-0.8 0.8-0.3 0.6-0.3 1.4 0 0.7 0.3 1.3 0.3 0.5 0.8 0.8 0.5 0.3 1.1 0.3 0.6 0 1.1-0.3 0.5-0.3 0.8-0.9 0.3-0.5 0.3-1.3zm4.8-5.1q-0.6 0-1-0.3-0.3-0.4-0.3-0.9 0-0.5 0.3-0.9 0.4-0.4 1-0.4 0.5 0 0.9 0.4 0.3 0.4 0.3 0.9 0 0.5-0.3 0.9-0.4 0.3-0.9 0.3zm1 1v8.3h-2.1v-8.3zm4.2-2.8v11.1h-2.1v-11.1zm5.7 11.2q-1.2 0-2.1-0.5-1-0.5-1.5-1.5-0.6-1-0.6-2.2 0-1.3 0.6-2.3 0.5-1 1.5-1.5 1-0.5 2.2-0.5 1.2 0 2.2 0.5 0.9 0.5 1.5 1.5 0.6 1 0.6 2.3 0 1.2-0.6 2.2-0.6 1-1.6 1.5-1 0.5-2.2 0.5zm0-1.8q0.6 0 1.1-0.3 0.5-0.2 0.8-0.8 0.3-0.6 0.3-1.3 0-1.2-0.6-1.9-0.6-0.6-1.5-0.6-0.9 0-1.6 0.6-0.6 0.7-0.6 1.9 0 1.1 0.6 1.8 0.6 0.6 1.5 0.6zm8.4-4.9v4q0 0.5 0.1 0.7 0.3 0.1 0.7 0.1h1v1.8h-1.3q-2.7 0-2.7-2.6v-4h-1v-1.7h1v-2.1h2.2v2.1h1.8v1.7z"/>
	<path id="Layer" fill-rule="evenodd" class="s6" d="m129.8-6.4l-3.1 8.4h-1.3l-3.1-8.4h1.1l2.7 7.2 2.6-7.2zm7.2 4.9q0 0.3-0.1 0.6h-5.2q0 1 0.6 1.5 0.7 0.6 1.5 0.6 0.7 0 1.2-0.3 0.5-0.4 0.7-0.9h1.1q-0.2 0.9-1 1.5-0.8 0.6-2 0.6-0.9 0-1.7-0.4-0.7-0.4-1.1-1.2-0.4-0.8-0.4-1.8 0-1 0.4-1.8 0.4-0.8 1.1-1.2 0.8-0.4 1.7-0.4 1 0 1.7 0.4 0.7 0.4 1.1 1.2 0.4 0.7 0.4 1.6zm-1.1-0.3q0-0.6-0.3-1-0.3-0.5-0.8-0.7-0.4-0.3-1-0.3-0.9 0-1.4 0.6-0.6 0.5-0.7 1.4zm3.7-1.7q0.3-0.6 0.8-0.9 0.5-0.3 1.3-0.3v1.1h-0.3q-1.8 0-1.8 2v3.6h-1.1v-6.6h1.1zm3.9-2.1q-0.3 0-0.5-0.2-0.2-0.2-0.2-0.6 0-0.3 0.2-0.5 0.2-0.2 0.5-0.2 0.3 0 0.5 0.2 0.2 0.2 0.2 0.5 0 0.4-0.2 0.6-0.2 0.2-0.5 0.2zm0.5 1.1v6.5h-1.1v-6.5zm4.6 0.9h-1.4v5.6h-1.1v-5.6h-0.8v-0.9h0.8v-0.5q0-1.1 0.6-1.6 0.6-0.5 1.8-0.5v0.9q-0.7 0-1 0.3-0.3 0.2-0.3 0.9v0.5h1.4zm1.8-2q-0.3 0-0.5-0.2-0.2-0.2-0.2-0.6 0-0.3 0.2-0.5 0.2-0.2 0.5-0.2 0.3 0 0.5 0.2 0.2 0.2 0.2 0.5 0 0.4-0.2 0.6-0.2 0.2-0.5 0.2zm0.5 1.1v6.5h-1v-6.5zm7.8 3q0 0.3 0 0.7h-5.3q0.1 0.9 0.7 1.5 0.6 0.5 1.5 0.5 0.7 0 1.1-0.3 0.5-0.3 0.7-0.9h1.2q-0.3 1-1.1 1.6-0.8 0.5-1.9 0.5-1 0-1.7-0.4-0.7-0.4-1.2-1.2-0.4-0.7-0.4-1.8 0-1 0.4-1.8 0.4-0.7 1.2-1.1 0.7-0.5 1.7-0.5 0.9 0 1.6 0.5 0.7 0.4 1.1 1.1 0.4 0.7 0.4 1.6zm-1.1-0.2q0-0.7-0.3-1.1-0.3-0.5-0.7-0.7-0.5-0.2-1.1-0.2-0.8 0-1.4 0.5-0.6 0.5-0.7 1.5zm2.2 0.4q0-1 0.4-1.7 0.4-0.8 1.1-1.2 0.7-0.5 1.6-0.5 0.8 0 1.5 0.4 0.6 0.4 1 0.9v-3.4h1.1v8.8h-1.1v-1.2q-0.4 0.6-1 1-0.6 0.3-1.5 0.3-0.9 0-1.6-0.4-0.7-0.4-1.1-1.2-0.4-0.8-0.4-1.8zm5.6 0q0-0.7-0.3-1.3-0.3-0.5-0.8-0.8-0.6-0.3-1.2-0.3-0.6 0-1.1 0.3-0.5 0.3-0.8 0.8-0.3 0.6-0.3 1.3 0 0.8 0.3 1.3 0.3 0.6 0.8 0.9 0.5 0.3 1.1 0.3 0.6 0 1.2-0.3 0.5-0.3 0.8-0.9 0.3-0.5 0.3-1.3z"/>
	<path id="Layer" class="s6" d="m113.1 2.2c-2.3 0-4.1-1.8-4.1-4.1 0-2.3 1.8-4.1 4.1-4.1 2.3 0 4.1 1.8 4.1 4.1 0 2.3-1.8 4.1-4.1 4.1z"/>
	<g id="Clip-Path" clip-path="url(#cp1)">
		<g id="Layer">
			<path id="Layer" class="s4" d="m110.1-4.2h6.6v4.2h-6.6z"/>
		</g>
	</g>
</svg>