<svg width="38" height="38" viewBox="0 0 38 38" fill="none" xmlns="http://www.w3.org/2000/svg">
<g id="Group 1115">
<circle id="Ellipse 148" cx="19" cy="19" r="18" transform="matrix(-1 0 0 1 38 0)" fill="white" stroke="#920F37" stroke-width="2"/>
<path id="Arrow 1" d="M27.3737 18.6261C27.7642 19.0167 27.7642 19.6498 27.3737 20.0404L21.0097 26.4043C20.6192 26.7948 19.986 26.7948 19.5955 26.4043C19.205 26.0138 19.205 25.3806 19.5955 24.9901L25.2524 19.3333L19.5955 13.6764C19.205 13.2859 19.205 12.6527 19.5955 12.2622C19.986 11.8717 20.6192 11.8717 21.0097 12.2622L27.3737 18.6261ZM9.33325 18.3333L26.6666 18.3333L26.6666 20.3333L9.33325 20.3333L9.33325 18.3333Z" fill="#920F37"/>
</g>
</svg>
