<svg width="20" height="17" viewBox="0 0 20 17" fill="none" xmlns="http://www.w3.org/2000/svg">
<path id="Vector" d="M20 0.00952686C19.1294 0.64948 18.1656 1.13894 17.1455 1.45906C16.5979 0.802992 15.8703 0.337986 15.0609 0.126936C14.2516 -0.0841147 13.3995 -0.0310264 12.6201 0.27902C11.8406 0.589067 11.1713 1.14111 10.7027 1.86049C10.2341 2.57988 9.98882 3.43189 10 4.30129V5.2487C8.40239 5.29187 6.81934 4.92261 5.39183 4.17381C3.96431 3.42501 2.73665 2.31991 1.81818 0.956936C1.81818 0.956936 -1.81818 9.48361 6.36364 13.2732C4.49139 14.5977 2.26105 15.2618 0 15.1681C8.18182 19.9051 18.1818 15.1681 18.1818 4.27287C18.181 4.00897 18.1566 3.74572 18.1091 3.48652C19.0369 2.53294 19.6917 1.329 20 0.00952686Z" fill="white"/>
</svg>
