<svg width="57" height="54" viewBox="0 0 57 54" fill="none" xmlns="http://www.w3.org/2000/svg">
<path fill-rule="evenodd" clip-rule="evenodd" d="M10.5762 1.7041C6.81153 1.7041 3.75964 4.75599 3.75964 8.52068V31.1477C3.75964 34.9123 6.81152 37.9642 10.5762 37.9642H19.3214C19.6828 37.9642 20.0226 38.1362 20.2367 38.4273L27.5414 48.3617C27.9954 48.9792 28.918 48.9792 29.372 48.3617L36.6767 38.4273C36.8908 38.1362 37.2306 37.9642 37.592 37.9642H46.6145C50.3792 37.9642 53.4311 34.9123 53.4311 31.1477V8.52068C53.4311 4.75599 50.3792 1.7041 46.6145 1.7041H10.5762Z" fill="#EBECFD"/>
<path d="M35.6961 22.8214C35.6961 27.1523 32.1096 30.6357 27.779 30.3772C23.3278 30.1114 20.2801 25.8308 20.8542 21.3562C21.2015 18.6342 22.4773 16.2999 23.8665 14.49C24.1075 14.174 24.3556 16.7165 24.6036 16.4364C24.8517 16.1491 27.1553 12.1629 27.9562 10.7624C28.105 10.5038 28.4452 10.4248 28.6862 10.6115C30.2951 11.8254 35.6961 16.3861 35.6961 22.8214Z" fill="#FF6723"/>
<path d="M33.5661 24.6045C33.5661 27.4744 31.0675 29.7814 28.0284 29.6772C24.7482 29.566 22.498 26.5641 22.9802 23.4719C23.6742 19.0385 28.2256 16.1895 28.2256 16.1895C28.2256 16.1895 33.5661 19.5319 33.5661 24.6045Z" fill="#FFB02E"/>
</svg>
