<svg width="57" height="54" viewBox="0 0 57 54" fill="none" xmlns="http://www.w3.org/2000/svg">
<path fill-rule="evenodd" clip-rule="evenodd" d="M10.5785 1.7041C6.81385 1.7041 3.76196 4.75599 3.76196 8.52068V31.1477C3.76196 34.9123 6.81384 37.9642 10.5785 37.9642H19.3234C19.6848 37.9642 20.0247 38.1362 20.2387 38.4273L27.5435 48.3617C27.9975 48.9792 28.92 48.9792 29.3741 48.3617L36.6788 38.4273C36.8929 38.1362 37.2327 37.9642 37.5941 37.9642H46.6169C50.3815 37.9642 53.4334 34.9123 53.4334 31.1477V8.52068C53.4334 4.75599 50.3815 1.7041 46.6169 1.7041H10.5785Z" fill="#EBECFD"/>
<path d="M20.0754 27.5092C20.0754 29.094 21.3275 30.3906 22.8577 30.3906H34.3346C35.8649 30.3906 37.1169 29.022 37.1169 27.4372V13.6543C37.1169 12.7313 35.9878 12.3052 35.3528 12.9443L32.1277 16.1895H25.1607L21.8506 12.9443C21.2115 12.3052 20.0754 12.7313 20.0754 13.6543V27.5092Z" fill="#FFB02E"/>
<path d="M23.6265 16.8474L21.6384 18.6935C21.2833 19.0485 20.6443 18.7645 20.6443 18.2675V14.5752C20.6443 14.1491 21.2833 13.8651 21.6384 14.2201L23.6265 16.0663C23.8396 16.2793 23.8396 16.6343 23.6265 16.8474Z" fill="#FF822D"/>
<path d="M33.6029 16.8474L35.591 18.6935C35.9461 19.0485 36.5851 18.7645 36.5851 18.2675V14.5752C36.5851 14.1491 35.9461 13.8651 35.591 14.2201L33.6029 16.0663C33.3898 16.2793 33.3898 16.6343 33.6029 16.8474Z" fill="#FF822D"/>
<path d="M29.3368 23.29H27.8557C27.5394 23.29 27.381 23.6725 27.6047 23.8961L28.3452 24.6366C28.4839 24.7753 28.7087 24.7753 28.8473 24.6366L29.5878 23.8961C29.8115 23.6725 29.6531 23.29 29.3368 23.29Z" fill="#F70A8D"/>
<path d="M19.1692 23.3276C18.9938 23.2399 18.7805 23.311 18.6928 23.4864C18.6051 23.6617 18.6762 23.875 18.8516 23.9627L21.6918 25.3828C21.8672 25.4705 22.0805 25.3994 22.1682 25.224C22.2559 25.0487 22.1848 24.8354 22.0094 24.7477L19.1692 23.3276Z" fill="#FF6723"/>
<path d="M19.1692 28.2231C18.9938 28.3107 18.7805 28.2397 18.6928 28.0643C18.6051 27.8889 18.6762 27.6756 18.8516 27.588L21.6918 26.1678C21.8672 26.0801 22.0805 26.1512 22.1682 26.3266C22.2559 26.502 22.1848 26.7152 22.0094 26.8029L19.1692 28.2231Z" fill="#FF6723"/>
<path d="M38.4996 23.4864C38.4119 23.311 38.1986 23.2399 38.0232 23.3276L35.183 24.7477C35.0076 24.8354 34.9365 25.0487 35.0242 25.224C35.1119 25.3994 35.3252 25.4705 35.5005 25.3828L38.3408 23.9627C38.5162 23.875 38.5872 23.6617 38.4996 23.4864Z" fill="#FF6723"/>
<path d="M38.0232 28.2231C38.1986 28.3107 38.4119 28.2397 38.4996 28.0643C38.5872 27.8889 38.5162 27.6756 38.3408 27.588L35.5005 26.1678C35.3252 26.0801 35.1119 26.1512 35.0242 26.3266C34.9365 26.502 35.0076 26.7152 35.183 26.8029L38.0232 28.2231Z" fill="#FF6723"/>
<path d="M28.5972 25.4956C28.2156 25.8783 27.563 26.1304 26.8221 26.1304C26.0894 26.1304 25.4431 25.8839 25.0598 25.5084C25.1452 26.0226 25.7187 28.6157 28.5972 28.6157C31.4757 28.6157 32.0492 26.0226 32.1346 25.5084C31.7513 25.8839 31.105 26.1304 30.3724 26.1304C29.6314 26.1304 28.9789 25.8783 28.5972 25.4956Z" fill="#BB1D80"/>
<path d="M24.8233 19.5053C24.8233 19.5053 24.1867 19.0197 23.5935 19.0929C22.1396 19.2725 21.9515 20.5496 22.4651 21.3078C23.3838 22.6648 26.1253 23.29 26.1253 23.29C26.1253 23.29 27.9771 21.3344 27.8831 19.7381C27.8324 18.8468 26.8776 17.8956 25.5756 18.5208C25.0475 18.7736 24.8233 19.5053 24.8233 19.5053Z" fill="#CA0B4A"/>
<path d="M32.3674 19.5053C32.3674 19.5053 33.0034 19.0197 33.5961 19.0929C35.056 19.2725 35.2439 20.5496 34.7236 21.3078C33.8057 22.6648 31.0664 23.29 31.0664 23.29C31.0664 23.29 29.2162 21.3344 29.3101 19.7381C29.3607 18.8468 30.3148 17.8956 31.6157 18.5208C32.1433 18.7736 32.3674 19.5053 32.3674 19.5053Z" fill="#CA0B4A"/>
</svg>
