<svg width="57" height="54" viewBox="0 0 57 54" fill="none" xmlns="http://www.w3.org/2000/svg">
<path fill-rule="evenodd" clip-rule="evenodd" d="M10.5772 1.7041C6.81251 1.7041 3.76062 4.75599 3.76062 8.52068V31.1477C3.76062 34.9123 6.8125 37.9642 10.5772 37.9642H19.3221C19.6835 37.9642 20.0233 38.1362 20.2374 38.4273L27.5421 48.3617C27.9961 48.9792 28.9187 48.9792 29.3727 48.3617L36.6774 38.4273C36.8915 38.1362 37.2313 37.9642 37.5927 37.9642H46.6155C50.3802 37.9642 53.4321 34.9123 53.4321 31.1477V8.52068C53.4321 4.75599 50.3802 1.7041 46.6155 1.7041H10.5772Z" fill="#EBECFD"/>
<path d="M37.9709 11.1835C37.2984 10.511 36.0536 10.4754 35.2596 10.8822C34.6118 11.1047 33.9293 11.3556 33.2332 11.6369L33.2406 11.6444C31.4118 12.4212 28.6767 13.8022 26.4877 15.8345C24.951 17.2611 24.0705 18.3594 23.4808 19.3598L19.7187 20.7446C19.2323 20.9236 19.0954 21.5465 19.4619 21.913C22.098 24.5491 24.7341 27.1852 27.3702 29.8213C27.7367 30.1878 28.3596 30.0509 28.5386 29.5645L30.1032 25.3142C31.2455 24.6337 32.3915 23.7768 33.5883 22.5801C35.2856 20.8828 36.6882 17.9227 37.5032 15.9362L37.5091 15.9421C37.7938 15.2388 38.0475 14.5491 38.2722 13.8948C38.679 13.1008 38.7975 12.0101 37.9709 11.1835Z" fill="#CA0B4A"/>
<path d="M33.7795 12.188C31.9923 12.9262 29.1796 14.3031 26.9697 16.3548C25.5392 17.6828 24.7182 18.694 24.1726 19.5851C23.6265 20.477 23.3382 21.2756 22.9919 22.2411L22.9901 22.2461C22.8693 22.583 22.7412 22.9402 22.5935 23.3214L25.8282 26.5561C28.3861 25.5061 30.6144 24.5486 33.0851 22.0779C34.7547 20.4083 36.166 17.3615 36.958 15.3884L33.7795 12.188Z" fill="#F4F4F4"/>
<path d="M34.6519 17.077C34.6519 18.3515 33.6187 19.3847 32.3442 19.3847C31.0697 19.3847 30.0365 18.3515 30.0365 17.077C30.0365 15.8025 31.0697 14.7693 32.3442 14.7693C33.6187 14.7693 34.6519 15.8025 34.6519 17.077Z" fill="#9B9B9B"/>
<path d="M33.942 17.0771C33.942 17.9595 33.2267 18.6748 32.3443 18.6748C31.462 18.6748 30.7467 17.9595 30.7467 17.0771C30.7467 16.1948 31.462 15.4795 32.3443 15.4795C33.2267 15.4795 33.942 16.1948 33.942 17.0771Z" fill="#83CBFF"/>
<path d="M18.9773 30.1144C18.4752 29.6123 18.6767 26.1303 20.4518 25.4203C20.4518 25.4203 22.227 24.7102 23.3709 25.8467C24.5148 26.9832 24.0021 28.2605 24.0021 28.2605C23.5 29.7667 21.3625 30.3655 21.1115 30.1144C20.9728 29.9758 21.2225 29.7234 21.1115 29.6124C21.0005 29.5013 20.829 29.628 20.3583 29.8634C20.0236 30.0308 19.1782 30.3152 18.9773 30.1144Z" fill="#FF8257"/>
<path d="M21.56 24.0432C21.9759 23.6272 22.6503 23.6272 23.0663 24.0432L25.5767 26.5536C25.9927 26.9695 25.9927 27.6439 25.5767 28.0599C25.1608 28.4758 24.4864 28.4758 24.0704 28.0599L21.56 25.5494C21.1441 25.1335 21.1441 24.4591 21.56 24.0432Z" fill="#533566"/>
<path d="M28.2683 22.3826C28.582 21.5301 27.7533 20.7013 26.9008 21.0151L21.8492 22.8746C21.3628 23.0537 21.2259 23.6766 21.5924 24.0431L25.2403 27.691C25.6068 28.0575 26.2297 27.9206 26.4088 27.4342L28.2683 22.3826Z" fill="#F92F60"/>
</svg>
